<?xml version="1.0" encoding="UTF-8" standalone="no"?>
<svg width="100%" height="100%" viewBox="0 0 1080 1080" version="1.1" xmlns="http://www.w3.org/2000/svg" xmlns:xlink="http://www.w3.org/1999/xlink" xml:space="preserve" xmlns:serif="http://www.serif.com/" style="fill-rule:evenodd;clip-rule:evenodd;stroke-linejoin:round;stroke-miterlimit:1.5;">
    <rect id="Plan-de-travail1" serif:id="Plan de travail1" x="0" y="0" width="1080" height="1080" style="fill:none;"/>
    <g id="Plan-de-travail11" serif:id="Plan de travail1">
        <g id="ECHOS">
            <g transform="matrix(2.56476,0,0,1.85067,-869.355,-110.215)">
                <path d="M691.685,295.635L682.566,302.644C661.588,250.226 609.947,214.183 550.075,214.183C490.203,214.183 438.561,250.226 417.584,302.644L408.465,295.635C430.947,239.457 485.908,199.732 550.075,199.732C614.241,199.732 669.202,239.457 691.685,295.635ZM408.465,408.751L417.584,401.742C438.561,454.16 490.203,490.203 550.075,490.203C609.947,490.203 661.588,454.16 682.566,401.742L691.685,408.751C669.202,464.929 614.241,504.654 550.075,504.654C485.908,504.654 430.947,464.929 408.465,408.751Z" style="fill:rgb(138,0,193);"/>
            </g>
            <g transform="matrix(2.70076,0,5.43002e-16,1.88133,-965.034,-167.294)">
                <path d="M413.339,497.756C385.489,464.887 368.685,422.368 368.685,375.955C368.685,329.541 385.489,287.022 413.339,254.153L420.858,267.283C395.943,296.687 380.525,334.433 380.525,375.955C380.525,417.476 395.943,455.222 420.858,484.626L413.339,497.756ZM653.991,214.076L649.43,229.761C622.477,213.61 590.942,204.374 557.262,204.374C523.582,204.374 492.047,213.61 465.094,229.761L460.534,214.076C488.822,197.125 521.913,187.377 557.262,187.377C592.612,187.377 625.702,197.125 653.991,214.076ZM701.185,497.756L693.666,484.627C718.582,455.222 734,417.477 734,375.955C734,334.433 718.582,296.688 693.666,267.283L701.185,254.154C729.036,287.022 745.84,329.542 745.84,375.955C745.84,422.368 729.036,464.888 701.185,497.756ZM460.534,537.834L465.094,522.148C492.047,538.299 523.582,547.535 557.262,547.535C590.942,547.535 622.477,538.299 649.43,522.148L653.991,537.834C625.702,554.785 592.612,564.532 557.262,564.532C521.913,564.532 488.822,554.785 460.534,537.834Z" style="fill:rgb(138,0,193);"/>
            </g>
            <g transform="matrix(2.44546,0,0,2.41855,-778.849,-323.118)">
                <path d="M471.258,293.75C421.962,339.877 428.362,381.417 464.403,423.972L373.57,360.129L471.258,293.75Z" style="fill:rgb(138,0,193);stroke:rgb(138,0,193);stroke-width:0.96px;"/>
            </g>
            <g transform="matrix(2.44546,0,0,2.41855,-778.849,-323.118)">
                <path d="M608.392,293.75C650.639,330.953 650.752,381.578 616.66,423.972C648.345,403.105 679.633,381.99 709.307,359.862C678.577,333.27 643.96,312.765 608.392,293.75Z" style="fill:rgb(138,0,193);"/>
                <path d="M608.392,293.75C643.96,312.765 678.577,333.27 709.307,359.862C679.633,381.99 648.345,403.105 616.66,423.972C650.752,381.578 650.639,330.953 608.392,293.75ZM614.43,298.089C632.177,315.754 641.138,336.044 642.103,356.869C643.086,378.083 635.766,399.87 620.908,420.023C650.604,400.414 679.896,380.553 707.778,359.807C679.203,335.254 647.303,315.91 614.43,298.089Z" style="fill:rgb(138,0,193);"/>
            </g>
            <g transform="matrix(3.32319,0,0,3.02948,-1257.9,-547.336)">
                <ellipse cx="541.016" cy="360.252" rx="14.677" ry="16.659" style="fill:rgb(138,0,193);"/>
                <path d="M541.016,343.593C549.117,343.593 555.693,351.058 555.693,360.252C555.693,369.446 549.117,376.91 541.016,376.91C532.916,376.91 526.339,369.446 526.339,360.252C526.339,351.058 532.916,343.593 541.016,343.593ZM541.016,347.816C535.003,347.816 530.188,353.427 530.188,360.252C530.188,367.077 535.003,372.688 541.016,372.688C547.03,372.688 551.845,367.077 551.845,360.252C551.845,353.427 547.03,347.816 541.016,347.816Z" style="fill:rgb(138,0,193);"/>
            </g>
            <g transform="matrix(3.32634,0,0,2.73288,-1282.28,-440.159)">
                <path d="M548.133,281.345C583.348,281.345 611.939,317.171 611.939,361.299C611.939,405.426 583.348,441.252 548.133,441.252C512.918,441.252 484.327,405.426 484.327,361.299C484.327,317.171 512.918,281.345 548.133,281.345ZM548.133,292.407C517.86,292.407 493.416,323.364 493.416,361.299C493.416,399.233 517.86,430.19 548.133,430.19C578.406,430.19 602.85,399.233 602.85,361.299C602.85,323.364 578.406,292.407 548.133,292.407Z" style="fill:rgb(138,0,193);"/>
            </g>
        </g>
    </g>
</svg>
